<svg width="95" height="95" viewBox="0 0 95 95" fill="none" xmlns="http://www.w3.org/2000/svg">
<path d="M21.7708 59.375C25.3729 59.375 28.6306 57.9579 31.1006 55.6937L55.8798 69.8527C55.5864 70.9547 55.4308 72.0889 55.4167 73.2292C55.4167 80.8688 61.6312 87.0833 69.2708 87.0833C76.9104 87.0833 83.125 80.8688 83.125 73.2292C83.125 65.5896 76.9104 59.375 69.2708 59.375C65.6687 59.375 62.411 60.7921 59.941 63.0563L35.1619 48.8973C35.4112 47.9196 35.5696 46.9102 35.5894 45.8573L59.9371 31.9437C62.411 34.2079 65.6687 35.625 69.2708 35.625C76.9104 35.625 83.125 29.4104 83.125 21.7708C83.125 14.1312 76.9104 7.91666 69.2708 7.91666C61.6312 7.91666 55.4167 14.1312 55.4167 21.7708C55.4167 22.9425 55.6067 24.0587 55.8798 25.1473L33.3806 38.0079C32.1288 36.0657 30.4105 34.4678 28.3825 33.3602C26.3546 32.2525 24.0815 31.6703 21.7708 31.6667C14.1312 31.6667 7.91666 37.8812 7.91666 45.5208C7.91666 53.1604 14.1312 59.375 21.7708 59.375ZM69.2708 67.2917C72.5444 67.2917 75.2083 69.9556 75.2083 73.2292C75.2083 76.5027 72.5444 79.1667 69.2708 79.1667C65.9973 79.1667 63.3333 76.5027 63.3333 73.2292C63.3333 69.9556 65.9973 67.2917 69.2708 67.2917ZM69.2708 15.8333C72.5444 15.8333 75.2083 18.4973 75.2083 21.7708C75.2083 25.0444 72.5444 27.7083 69.2708 27.7083C65.9973 27.7083 63.3333 25.0444 63.3333 21.7708C63.3333 18.4973 65.9973 15.8333 69.2708 15.8333ZM21.7708 39.5833C25.0444 39.5833 27.7083 42.2473 27.7083 45.5208C27.7083 48.7944 25.0444 51.4583 21.7708 51.4583C18.4973 51.4583 15.8333 48.7944 15.8333 45.5208C15.8333 42.2473 18.4973 39.5833 21.7708 39.5833Z" fill="#3F3F3F"/>
</svg>
