<svg width="95" height="95" viewBox="0 0 95 95" fill="none" xmlns="http://www.w3.org/2000/svg">
<path d="M47.1438 55.4087L78.189 55.4167C80.5511 55.4167 82.8164 56.355 84.4867 58.0252C86.1569 59.6955 87.0952 61.9608 87.0952 64.3229V67.9052C87.0952 70.0442 86.6329 72.158 85.74 74.1017C84.847 76.0454 83.5445 77.7732 81.9217 79.1667C75.7229 84.4866 66.8563 87.0833 55.4167 87.0833H54.7082C55.6344 85.2229 55.6661 83.026 54.8111 81.1379L55.4167 81.1498C65.55 81.1498 73.0629 78.945 78.0544 74.6581C79.0274 73.8224 79.8085 72.7863 80.3441 71.6208C80.8797 70.4553 81.1572 69.1879 81.1577 67.9052V64.3229C81.1577 63.5355 80.845 62.7804 80.2882 62.2237C79.7315 61.6669 78.9763 61.3542 78.189 61.3542H47.409C47.5886 59.3693 47.4981 57.3692 47.1398 55.4087H47.1438ZM25.7292 41.5625C29.1123 41.5633 32.4252 42.5274 35.2804 44.3422C38.1355 46.1571 40.4148 48.7474 41.8516 51.8103C43.2883 54.8731 43.8231 58.2818 43.3934 61.6375C42.9637 64.9932 41.5872 68.1572 39.425 70.7592L50.5994 81.8979C51.1333 82.4263 51.4471 83.1374 51.4775 83.888C51.5079 84.6386 51.2526 85.3728 50.7631 85.9426C50.2736 86.5124 49.5863 86.8754 48.8398 86.9586C48.0932 87.0417 47.3429 86.8388 46.74 86.3906L46.4036 86.1017L34.9125 74.6383C32.5598 76.0537 29.9116 76.9061 27.175 77.1288C24.4383 77.3515 21.6872 76.9385 19.1365 75.9222C16.5859 74.9058 14.3047 73.3135 12.4712 71.2697C10.6377 69.2259 9.30146 66.7859 8.56691 64.1403C7.83237 61.4946 7.71938 58.715 8.23676 56.0185C8.75415 53.322 9.88791 50.7816 11.5495 48.5957C13.2111 46.4098 15.3555 44.6376 17.8152 43.4176C20.275 42.1975 22.9835 41.5626 25.7292 41.5625ZM25.7292 47.5C22.5797 47.5 19.5593 48.7511 17.3323 50.9781C15.1053 53.2051 13.8542 56.2255 13.8542 59.375C13.8542 62.5244 15.1053 65.5449 17.3323 67.7719C19.5593 69.9989 22.5797 71.25 25.7292 71.25C28.8786 71.25 31.8991 69.9989 34.1261 67.7719C36.3531 65.5449 37.6042 62.5244 37.6042 59.375C37.6042 56.2255 36.3531 53.2051 34.1261 50.9781C31.8991 48.7511 28.8786 47.5 25.7292 47.5ZM55.4167 7.9325C60.6658 7.9325 65.6999 10.0177 69.4115 13.7293C73.1232 17.441 75.2084 22.4751 75.2084 27.7242C75.2084 32.9732 73.1232 38.0073 69.4115 41.719C65.6999 45.4306 60.6658 47.5158 55.4167 47.5158C50.1676 47.5158 45.1335 45.4306 41.4219 41.719C37.7102 38.0073 35.625 32.9732 35.625 27.7242C35.625 22.4751 37.7102 17.441 41.4219 13.7293C45.1335 10.0177 50.1676 7.9325 55.4167 7.9325ZM55.4167 13.87C53.5973 13.87 51.7958 14.2283 50.1149 14.9246C48.4341 15.6208 46.9068 16.6413 45.6203 17.9278C44.3338 19.2143 43.3133 20.7415 42.6171 22.4224C41.9209 24.1033 41.5625 25.9048 41.5625 27.7242C41.5625 29.5435 41.9209 31.3451 42.6171 33.0259C43.3133 34.7068 44.3338 36.2341 45.6203 37.5205C46.9068 38.807 48.4341 39.8275 50.1149 40.5237C51.7958 41.22 53.5973 41.5783 55.4167 41.5783C59.091 41.5783 62.6149 40.1187 65.2131 37.5205C67.8112 34.9224 69.2709 31.3985 69.2709 27.7242C69.2709 24.0498 67.8112 20.5259 65.2131 17.9278C62.6149 15.3296 59.091 13.87 55.4167 13.87Z" fill="#3F3F3F"/>
</svg>
