<svg width="87" height="95" viewBox="0 0 87 95" fill="none" xmlns="http://www.w3.org/2000/svg">
<path d="M61.625 76.0792H18.125V27.7083H43.5V19.7917H18.125C14.1375 19.7917 10.875 23.3542 10.875 27.7083V75.2083C10.875 79.5625 14.1375 83.125 18.125 83.125H61.625C65.6125 83.125 68.875 79.5625 68.875 75.2083V47.5H61.625V76.0792Z" fill="#3F3F3F"/>
<path d="M68.875 7.91666H61.625V19.7917H50.75C50.7863 19.8312 50.75 27.7083 50.75 27.7083H61.625V39.5437C61.6613 39.5833 68.875 39.5437 68.875 39.5437V27.7083H79.75V19.7917H68.875V7.91666ZM25.375 35.625H54.375V43.5417H25.375V35.625ZM25.375 47.5V55.4167H54.375V47.5H43.5H25.375ZM25.375 59.375H54.375V67.2917H25.375V59.375Z" fill="#3F3F3F"/>
</svg>
