<svg width="95" height="95" viewBox="0 0 95 95" fill="none" xmlns="http://www.w3.org/2000/svg">
<path d="M55.4167 7.91666H23.75C21.6504 7.91666 19.6367 8.75074 18.1521 10.2354C16.6674 11.7201 15.8333 13.7337 15.8333 15.8333V79.1667C15.8333 81.2663 16.6674 83.2799 18.1521 84.7646C19.6367 86.2493 21.6504 87.0833 23.75 87.0833H71.25C73.3496 87.0833 75.3633 86.2493 76.8479 84.7646C78.3326 83.2799 79.1667 81.2663 79.1667 79.1667V31.6667L55.4167 7.91666ZM23.75 15.8333H51.4583L71.25 35.625V69.5875L63.9667 62.3042C66.4791 58.4998 67.5921 53.9409 67.1156 49.4068C66.6391 44.8726 64.6026 40.6448 61.3542 37.4458C59.5419 35.6141 57.3843 34.1601 55.0061 33.1681C52.628 32.1761 50.0767 31.6657 47.5 31.6667C42.4333 31.6667 37.4063 33.6458 33.5271 37.4458C25.7292 45.1646 25.7292 57.6729 33.5271 65.3125C37.3667 69.2708 42.4333 71.1312 47.5 71.1312C51.3 71.1312 55.1 70.0229 58.3854 67.8458L69.6667 79.1667H23.75V15.8333ZM55.8521 59.7708C53.6354 61.9875 50.6667 63.3333 47.5 63.3333C44.3333 63.3333 41.3646 62.0271 39.1479 59.7708C36.9313 57.5542 35.625 54.5854 35.625 51.4583C35.625 48.2521 36.8917 45.2833 39.1479 43.0667C41.3646 40.8104 44.3333 39.5833 47.5 39.5833C50.6667 39.5833 53.6354 40.8104 55.8521 43.0667C58.0687 45.2833 59.375 48.2521 59.375 51.4583C59.375 54.5854 58.1083 57.5542 55.8521 59.7708Z" fill="#3F3F3F"/>
</svg>
